<mxfile host="app.diagrams.net" modified="2023-11-23T01:00:11.352Z" agent="Mozilla/5.0 (Windows NT 10.0; Win64; x64) AppleWebKit/537.36 (KHTML, like Gecko) Chrome/119.0.0.0 Safari/537.36" etag="YSY4SUjknlnfxY7iyp1Y" version="22.1.3" type="github">
  <diagram name="페이지-1" id="ZeWYC80MoeHbNpzLWQ5p">
    <mxGraphModel dx="840" dy="758" grid="1" gridSize="10" guides="1" tooltips="1" connect="1" arrows="1" fold="1" page="1" pageScale="1" pageWidth="827" pageHeight="1169" math="0" shadow="0">
      <root>
        <mxCell id="0" />
        <mxCell id="1" parent="0" />
        <mxCell id="Tg6wcFkFNeDwdS5GyfMi-22" style="edgeStyle=orthogonalEdgeStyle;rounded=0;orthogonalLoop=1;jettySize=auto;html=1;exitX=0.5;exitY=1;exitDx=0;exitDy=0;entryX=0.5;entryY=0;entryDx=0;entryDy=0;" parent="1" source="Tg6wcFkFNeDwdS5GyfMi-10" target="Tg6wcFkFNeDwdS5GyfMi-16" edge="1">
          <mxGeometry relative="1" as="geometry" />
        </mxCell>
        <mxCell id="Tg6wcFkFNeDwdS5GyfMi-25" style="edgeStyle=orthogonalEdgeStyle;rounded=0;orthogonalLoop=1;jettySize=auto;html=1;exitX=0;exitY=0.75;exitDx=0;exitDy=0;" parent="1" source="Tg6wcFkFNeDwdS5GyfMi-10" target="Tg6wcFkFNeDwdS5GyfMi-14" edge="1">
          <mxGeometry relative="1" as="geometry" />
        </mxCell>
        <mxCell id="Tg6wcFkFNeDwdS5GyfMi-26" style="edgeStyle=orthogonalEdgeStyle;rounded=0;orthogonalLoop=1;jettySize=auto;html=1;exitX=1;exitY=0.75;exitDx=0;exitDy=0;entryX=0.5;entryY=0;entryDx=0;entryDy=0;" parent="1" source="Tg6wcFkFNeDwdS5GyfMi-10" target="Tg6wcFkFNeDwdS5GyfMi-18" edge="1">
          <mxGeometry relative="1" as="geometry" />
        </mxCell>
        <mxCell id="Tg6wcFkFNeDwdS5GyfMi-10" value="&lt;b&gt;App&lt;/b&gt;" style="html=1;dropTarget=0;whiteSpace=wrap;" parent="1" vertex="1">
          <mxGeometry x="340" y="20" width="120" height="60" as="geometry" />
        </mxCell>
        <mxCell id="Tg6wcFkFNeDwdS5GyfMi-11" value="" style="shape=module;jettyWidth=8;jettyHeight=4;" parent="Tg6wcFkFNeDwdS5GyfMi-10" vertex="1">
          <mxGeometry x="1" width="20" height="20" relative="1" as="geometry">
            <mxPoint x="-27" y="7" as="offset" />
          </mxGeometry>
        </mxCell>
        <mxCell id="Tg6wcFkFNeDwdS5GyfMi-14" value="&lt;b&gt;Header&lt;/b&gt;" style="html=1;dropTarget=0;whiteSpace=wrap;" parent="1" vertex="1">
          <mxGeometry x="180" y="120" width="120" height="60" as="geometry" />
        </mxCell>
        <mxCell id="Tg6wcFkFNeDwdS5GyfMi-15" value="" style="shape=module;jettyWidth=8;jettyHeight=4;" parent="Tg6wcFkFNeDwdS5GyfMi-14" vertex="1">
          <mxGeometry x="1" width="20" height="20" relative="1" as="geometry">
            <mxPoint x="-27" y="7" as="offset" />
          </mxGeometry>
        </mxCell>
        <mxCell id="Tg6wcFkFNeDwdS5GyfMi-16" value="&lt;b&gt;RouterView&lt;/b&gt;" style="html=1;dropTarget=0;whiteSpace=wrap;" parent="1" vertex="1">
          <mxGeometry x="340" y="120" width="120" height="60" as="geometry" />
        </mxCell>
        <mxCell id="Tg6wcFkFNeDwdS5GyfMi-17" value="" style="shape=module;jettyWidth=8;jettyHeight=4;" parent="Tg6wcFkFNeDwdS5GyfMi-16" vertex="1">
          <mxGeometry x="1" width="20" height="20" relative="1" as="geometry">
            <mxPoint x="-27" y="7" as="offset" />
          </mxGeometry>
        </mxCell>
        <mxCell id="Tg6wcFkFNeDwdS5GyfMi-18" value="&lt;b&gt;Footer&lt;/b&gt;" style="html=1;dropTarget=0;whiteSpace=wrap;" parent="1" vertex="1">
          <mxGeometry x="500" y="120" width="120" height="60" as="geometry" />
        </mxCell>
        <mxCell id="Tg6wcFkFNeDwdS5GyfMi-19" value="" style="shape=module;jettyWidth=8;jettyHeight=4;" parent="Tg6wcFkFNeDwdS5GyfMi-18" vertex="1">
          <mxGeometry x="1" width="20" height="20" relative="1" as="geometry">
            <mxPoint x="-27" y="7" as="offset" />
          </mxGeometry>
        </mxCell>
        <mxCell id="Tg6wcFkFNeDwdS5GyfMi-29" value="&lt;b&gt;Home&lt;/b&gt;" style="html=1;dropTarget=0;whiteSpace=wrap;" parent="1" vertex="1">
          <mxGeometry x="400" y="410" width="120" height="60" as="geometry" />
        </mxCell>
        <mxCell id="Tg6wcFkFNeDwdS5GyfMi-30" value="" style="shape=module;jettyWidth=8;jettyHeight=4;" parent="Tg6wcFkFNeDwdS5GyfMi-29" vertex="1">
          <mxGeometry x="1" width="20" height="20" relative="1" as="geometry">
            <mxPoint x="-27" y="7" as="offset" />
          </mxGeometry>
        </mxCell>
        <mxCell id="Tg6wcFkFNeDwdS5GyfMi-31" value="&lt;b&gt;Article&lt;/b&gt;" style="html=1;dropTarget=0;whiteSpace=wrap;" parent="1" vertex="1">
          <mxGeometry x="540" y="570" width="120" height="60" as="geometry" />
        </mxCell>
        <mxCell id="Tg6wcFkFNeDwdS5GyfMi-32" value="" style="shape=module;jettyWidth=8;jettyHeight=4;" parent="Tg6wcFkFNeDwdS5GyfMi-31" vertex="1">
          <mxGeometry x="1" width="20" height="20" relative="1" as="geometry">
            <mxPoint x="-27" y="7" as="offset" />
          </mxGeometry>
        </mxCell>
        <mxCell id="Tg6wcFkFNeDwdS5GyfMi-33" value="&lt;b&gt;StockView&lt;/b&gt;" style="html=1;dropTarget=0;whiteSpace=wrap;" parent="1" vertex="1">
          <mxGeometry x="680" y="490" width="120" height="60" as="geometry" />
        </mxCell>
        <mxCell id="Tg6wcFkFNeDwdS5GyfMi-34" value="" style="shape=module;jettyWidth=8;jettyHeight=4;" parent="Tg6wcFkFNeDwdS5GyfMi-33" vertex="1">
          <mxGeometry x="1" width="20" height="20" relative="1" as="geometry">
            <mxPoint x="-27" y="7" as="offset" />
          </mxGeometry>
        </mxCell>
        <mxCell id="Tg6wcFkFNeDwdS5GyfMi-35" value="&lt;b&gt;MarketView&lt;/b&gt;" style="html=1;dropTarget=0;whiteSpace=wrap;" parent="1" vertex="1">
          <mxGeometry x="540" y="490" width="120" height="60" as="geometry" />
        </mxCell>
        <mxCell id="Tg6wcFkFNeDwdS5GyfMi-36" value="" style="shape=module;jettyWidth=8;jettyHeight=4;" parent="Tg6wcFkFNeDwdS5GyfMi-35" vertex="1">
          <mxGeometry x="1" width="20" height="20" relative="1" as="geometry">
            <mxPoint x="-27" y="7" as="offset" />
          </mxGeometry>
        </mxCell>
        <mxCell id="Tg6wcFkFNeDwdS5GyfMi-37" value="&lt;b&gt;BankView&lt;/b&gt;" style="html=1;dropTarget=0;whiteSpace=wrap;" parent="1" vertex="1">
          <mxGeometry x="680" y="410" width="120" height="60" as="geometry" />
        </mxCell>
        <mxCell id="Tg6wcFkFNeDwdS5GyfMi-38" value="" style="shape=module;jettyWidth=8;jettyHeight=4;" parent="Tg6wcFkFNeDwdS5GyfMi-37" vertex="1">
          <mxGeometry x="1" width="20" height="20" relative="1" as="geometry">
            <mxPoint x="-27" y="7" as="offset" />
          </mxGeometry>
        </mxCell>
        <mxCell id="Tg6wcFkFNeDwdS5GyfMi-39" value="&lt;b&gt;UserInfoView&lt;/b&gt;" style="html=1;dropTarget=0;whiteSpace=wrap;" parent="1" vertex="1">
          <mxGeometry x="400" y="570" width="120" height="60" as="geometry" />
        </mxCell>
        <mxCell id="Tg6wcFkFNeDwdS5GyfMi-40" value="" style="shape=module;jettyWidth=8;jettyHeight=4;" parent="Tg6wcFkFNeDwdS5GyfMi-39" vertex="1">
          <mxGeometry x="1" width="20" height="20" relative="1" as="geometry">
            <mxPoint x="-27" y="7" as="offset" />
          </mxGeometry>
        </mxCell>
        <mxCell id="Tg6wcFkFNeDwdS5GyfMi-41" value="&lt;b&gt;MapView&lt;/b&gt;" style="html=1;dropTarget=0;whiteSpace=wrap;" parent="1" vertex="1">
          <mxGeometry x="540" y="410" width="120" height="60" as="geometry" />
        </mxCell>
        <mxCell id="Tg6wcFkFNeDwdS5GyfMi-42" value="" style="shape=module;jettyWidth=8;jettyHeight=4;" parent="Tg6wcFkFNeDwdS5GyfMi-41" vertex="1">
          <mxGeometry x="1" width="20" height="20" relative="1" as="geometry">
            <mxPoint x="-27" y="7" as="offset" />
          </mxGeometry>
        </mxCell>
        <mxCell id="Tg6wcFkFNeDwdS5GyfMi-43" value="&lt;b&gt;ExchangeRate&lt;/b&gt;" style="html=1;dropTarget=0;whiteSpace=wrap;" parent="1" vertex="1">
          <mxGeometry x="400" y="490" width="120" height="60" as="geometry" />
        </mxCell>
        <mxCell id="Tg6wcFkFNeDwdS5GyfMi-44" value="" style="shape=module;jettyWidth=8;jettyHeight=4;" parent="Tg6wcFkFNeDwdS5GyfMi-43" vertex="1">
          <mxGeometry x="1" width="20" height="20" relative="1" as="geometry">
            <mxPoint x="-27" y="7" as="offset" />
          </mxGeometry>
        </mxCell>
        <mxCell id="zEUNwuFiyMhTaIZTv6xQ-4" style="edgeStyle=orthogonalEdgeStyle;rounded=0;orthogonalLoop=1;jettySize=auto;html=1;exitX=0.5;exitY=1;exitDx=0;exitDy=0;entryX=0;entryY=0;entryDx=280;entryDy=30;entryPerimeter=0;" edge="1" parent="1" source="Tg6wcFkFNeDwdS5GyfMi-16">
          <mxGeometry relative="1" as="geometry">
            <mxPoint x="400" y="230" as="targetPoint" />
          </mxGeometry>
        </mxCell>
        <mxCell id="zEUNwuFiyMhTaIZTv6xQ-5" value="&lt;p style=&quot;margin:0px;margin-top:6px;text-align:center;&quot;&gt;&lt;b&gt;Home&lt;/b&gt;&lt;/p&gt;&lt;hr&gt;&lt;p style=&quot;margin:0px;margin-left:8px;&quot;&gt;&lt;br&gt;&lt;/p&gt;" style="align=left;overflow=fill;html=1;dropTarget=0;whiteSpace=wrap;" vertex="1" parent="1">
          <mxGeometry x="70" y="220" width="290" height="145" as="geometry" />
        </mxCell>
        <mxCell id="zEUNwuFiyMhTaIZTv6xQ-6" value="" style="shape=component;jettyWidth=8;jettyHeight=4;" vertex="1" parent="zEUNwuFiyMhTaIZTv6xQ-5">
          <mxGeometry x="1" width="20" height="20" relative="1" as="geometry">
            <mxPoint x="-24" y="4" as="offset" />
          </mxGeometry>
        </mxCell>
        <mxCell id="zEUNwuFiyMhTaIZTv6xQ-7" value="&lt;p style=&quot;margin:0px;margin-top:6px;text-align:center;&quot;&gt;&lt;b&gt;Kospi&lt;/b&gt;&lt;/p&gt;&lt;hr&gt;&lt;p style=&quot;margin:0px;margin-left:8px;&quot;&gt;&amp;lt;&amp;lt;required interfaces&amp;gt;&amp;gt;&lt;/p&gt;" style="align=left;overflow=fill;html=1;dropTarget=0;whiteSpace=wrap;" vertex="1" parent="1">
          <mxGeometry x="80" y="430" width="180" height="90" as="geometry" />
        </mxCell>
        <mxCell id="zEUNwuFiyMhTaIZTv6xQ-8" value="" style="shape=component;jettyWidth=8;jettyHeight=4;" vertex="1" parent="zEUNwuFiyMhTaIZTv6xQ-7">
          <mxGeometry x="1" width="20" height="20" relative="1" as="geometry">
            <mxPoint x="-24" y="4" as="offset" />
          </mxGeometry>
        </mxCell>
      </root>
    </mxGraphModel>
  </diagram>
</mxfile>
